<svg height="464pt" viewBox="-24 0 464 464" width="464pt" xmlns="http://www.w3.org/2000/svg"><path d="m408 88h-384v-40c0-8.835938 7.164062-16 16-16h368zm0 0" fill="#8d7761"/><path d="m40 32h336v56h-352v-40c0-8.835938 7.164062-16 16-16zm0 0" fill="#4799cf"/><path d="m24 88h384v368h-384zm0 0" fill="#9a826a"/><path d="m344 424-320-16v-320h352v304c0 17.671875-14.324219 32-32 32zm0 0" fill="#f7ba61"/><path d="m344 424c-17.671875 0-32-14.328125-32-32s14.328125-32 32-32h-304c-17.671875 0-32 14.328125-32 32s14.328125 32 32 32zm0 0" fill="#ffd085"/><path d="m88 8c8.835938 0 16 7.164062 16 16v32h-32v-32c0-8.835938 7.164062-16 16-16zm0 0" fill="#d9d9d9"/><path d="m312 8c8.835938 0 16 7.164062 16 16v32h-32v-32c0-8.835938 7.164062-16 16-16zm0 0" fill="#d9d9d9"/><path d="m48 48h80v16h-80zm0 0" fill="#428dc5"/><path d="m272 48h80v16h-80zm0 0" fill="#428dc5"/><path d="m136 184h128v48h-128zm0 0" fill="#a8a8a8"/><path d="m136 216h128v16h-128zm0 0" fill="#878787"/><path d="m296 152h32v112h-32zm0 0" fill="#a8a8a8"/><path d="m296 248h32v16h-32zm0 0" fill="#878787"/><path d="m296 280.71875-32-.238281v-152.480469l32 .238281zm0 0" fill="#d9d9d9"/><path d="m296 280.71875-32-.238281v-16.542969l32 .238281zm0 0" fill="#cdcdcd"/><path d="m136 280h-32v-144.71875l32 .238281zm0 0" fill="#d9d9d9"/><path d="m136 280h-32v-16l32 .238281zm0 0" fill="#cdcdcd"/><path d="m72 152h32v112h-32zm0 0" fill="#a8a8a8"/><path d="m72 248h32v16h-32zm0 0" fill="#878787"/><path d="m168 184h64v48h-64zm0 0" fill="#d9d9d9"/><path d="m168 216h64v16h-64zm0 0" fill="#cdcdcd"/><g fill="#f3af3e"><path d="m192 304h16v16h-16zm0 0"/><path d="m224 304h16v16h-16zm0 0"/><path d="m160 304h16v16h-16zm0 0"/></g><path d="m416 456v-424c0-4.417969-3.582031-8-8-8h-72c0-13.253906-10.746094-24-24-24s-24 10.746094-24 24h-176c0-13.253906-10.746094-24-24-24s-24 10.746094-24 24h-24c-13.253906 0-24 10.746094-24 24v312.207031c-10.066406 7.46875-16 19.261719-16 31.792969s5.933594 24.324219 16 31.792969v32.207031c0 4.417969 3.582031 8 8 8h384c4.417969 0 8-3.582031 8-8zm-16-376h-16v-40h16zm-96-56c0-4.417969 3.582031-8 8-8s8 3.582031 8 8v24h-16zm-224 0c0-4.417969 3.582031-8 8-8s8 3.582031 8 8v24h-16zm-48 24c0-4.417969 3.582031-8 8-8h24v8h-16v16h80v-16h-16v-8h176v8h-16v16h80v-16h-16v-8h32v40h-336zm0 48h336v296c0 13.253906-10.746094 24-24 24s-24-10.746094-24-24 10.746094-24 24-24c4.417969 0 8-3.582031 8-8s-3.582031-8-8-8h-304c-2.6875-.003906-5.367188.265625-8 .800781zm8 272h272c-10.6875 14.214844-10.6875 33.785156 0 48h-272c-13.253906 0-24-10.746094-24-24s10.746094-24 24-24zm360 80h-368v-16h312c22.082031-.027344 39.972656-17.917969 40-40v-296h16zm0 0"/><path d="m72 272h24v8c0 4.417969 3.582031 8 8 8h32c4.417969 0 8-3.582031 8-8v-40h112v40c0 4.417969 3.582031 8 8 8h32c4.417969 0 8-3.582031 8-8v-8h24c4.417969 0 8-3.582031 8-8v-112c0-4.417969-3.582031-8-8-8h-24v-8c0-4.417969-3.582031-8-8-8h-32c-4.417969 0-8 3.582031-8 8v40h-112v-40c0-4.417969-3.582031-8-8-8h-32c-4.417969 0-8 3.582031-8 8v8h-24c-4.417969 0-8 3.582031-8 8v112c0 4.417969 3.582031 8 8 8zm248-112v96h-16v-96zm-48-16h16v128h-16zm-16 80h-16v-32h16zm-32-32v32h-48v-32zm-64 0v32h-16v-32zm-48-48h16v128h-16zm-32 16h16v96h-16zm0 0"/><path d="m192 304h16v16h-16zm0 0"/><path d="m224 304h16v16h-16zm0 0"/><path d="m160 304h16v16h-16zm0 0"/></svg>