<svg height="512pt" viewBox="0 0 512 512" width="512pt" xmlns="http://www.w3.org/2000/svg" xmlns:xlink="http://www.w3.org/1999/xlink"><linearGradient id="linear0" gradientTransform="matrix(1 0 0 -1 0 514)" gradientUnits="userSpaceOnUse" x1="0" x2="512" y1="258" y2="258"><stop offset="0" stop-color="#00f2fe"/><stop offset=".0208" stop-color="#03effe"/><stop offset=".2931" stop-color="#24d2fe"/><stop offset=".5538" stop-color="#3cbdfe"/><stop offset=".7956" stop-color="#4ab0fe"/><stop offset="1" stop-color="#4facfe"/></linearGradient><path d="m512 256c0 50.5-15 99.699219-43.398438 142.101562-6.101562 9.199219-18.601562 11.597657-27.703124 5.5-9.199219-6.101562-11.597657-18.601562-5.5-27.703124 23.902343-35.898438 36.601562-77.296876 36.601562-119.898438 0-119.101562-96.898438-216-216-216s-216 96.898438-216 216 96.898438 216 216 216c40.199219 0 80.601562-11 113.699219-31.101562 9.402343-5.699219 21.699219-2.699219 27.5 6.703124 5.699219 9.398438 2.699219 21.699219-6.699219 27.5-39.300781 23.796876-87 36.898438-134.5 36.898438-68.398438 0-132.699219-26.601562-181-75-48.398438-48.300781-75-112.601562-75-181s26.601562-132.699219 75-181c48.300781-48.398438 112.601562-75 181-75s132.699219 26.601562 181 75c48.398438 48.300781 75 112.601562 75 181zm-268 49.800781v-4l-65.300781 37.898438c-6.097657 3.601562-12.898438 5.300781-19.597657 5.300781-6.703124 0-13.402343-1.800781-19.5-5.300781-12.300781-7.097657-19.601562-19.800781-19.601562-33.898438v-99.601562c0-14.199219 7.300781-26.898438 19.601562-33.898438 12.199219-7 26.796876-7 39.097657.097657l65.300781 37.902343v-4c0-14.199219 7.300781-26.902343 19.601562-33.902343 12.199219-7 26.796876-7 39 .101562l85.898438 49.800781c12.199219 7.097657 19.5 19.699219 19.5 33.898438s-7.300781 26.800781-19.5 33.902343l-85.898438 49.796876c-6.101562 3.601562-12.902343 5.300781-19.601562 5.300781s-13.398438-1.800781-19.5-5.300781c-12.199219-7.199219-19.5-19.898438-19.5-34.097657zm-.800781-49.800781-83.199219-48.300781v96.601562zm40.800781 48.300781 83.199219-48.300781-83.199219-48.300781zm0 0" fill="url(#linear0)"/></svg>